<?xml version="1.0" standalone="no"?>
<!DOCTYPE svg PUBLIC "-//W3C//DTD SVG 20010904//EN"
 "http://www.w3.org/TR/2001/REC-SVG-20010904/DTD/svg10.dtd">
<svg version="1.0" xmlns="http://www.w3.org/2000/svg"
 width="828.000000pt" height="427.000000pt" viewBox="0 0 828.000000 427.000000"
 preserveAspectRatio="xMidYMid meet">

<g transform="translate(0.000000,427.000000) scale(0.100000,-0.100000)"
fill="#000000" stroke="none">
<path d="M1706 4041 c-4 -6 -14 -11 -23 -11 -9 0 -27 -9 -39 -21 -21 -20 -24
-20 -46 -5 -30 22 -61 20 -83 -4 -15 -17 -17 -31 -11 -105 6 -72 4 -90 -11
-115 -9 -17 -25 -30 -35 -30 -9 0 -29 -10 -44 -23 -25 -22 -26 -25 -14 -59 17
-45 2 -68 -41 -68 -22 0 -29 5 -29 19 0 19 -20 65 -61 144 -21 41 -71 77 -106
77 -12 0 -25 4 -28 10 -3 5 -29 12 -57 16 -40 6 -60 16 -98 49 -52 46 -170
108 -196 103 -35 -7 -41 -36 -15 -81 41 -72 73 -108 115 -129 23 -11 65 -47
95 -79 l55 -60 -42 -42 c-23 -24 -42 -47 -42 -53 0 -18 -45 -54 -67 -54 -27 0
-73 -37 -73 -59 0 -59 -48 -111 -104 -111 -19 0 -32 -10 -51 -40 -30 -47 -32
-87 -6 -141 l19 -39 -24 -29 c-13 -16 -24 -32 -24 -36 0 -4 -20 -31 -45 -59
-25 -29 -45 -60 -45 -69 0 -9 13 -44 29 -78 31 -66 31 -94 -1 -102 -17 -5 -20
-12 -16 -46 3 -39 2 -41 -24 -41 -38 0 -78 -59 -78 -116 0 -28 -6 -46 -20 -59
-42 -38 -50 -128 -15 -181 8 -13 23 -24 31 -24 27 0 126 -67 192 -130 51 -48
70 -60 96 -60 23 0 41 -9 61 -30 23 -24 37 -30 60 -28 29 3 30 5 30 49 0 44 1
46 20 33 11 -8 27 -14 36 -14 9 0 24 -11 32 -24 9 -13 28 -27 44 -31 15 -3 35
-13 43 -20 8 -7 60 -37 115 -65 55 -29 105 -56 110 -60 6 -4 35 -16 65 -25 93
-30 96 -32 113 -67 9 -18 27 -43 39 -54 13 -12 29 -35 37 -50 7 -16 17 -36 21
-44 5 -10 26 -16 69 -18 54 -3 63 -6 71 -26 10 -27 107 -84 188 -110 29 -10
65 -28 80 -40 43 -36 131 -76 167 -76 24 0 38 7 52 25 21 29 81 37 109 14 17
-14 49 -34 74 -45 106 -48 152 -73 175 -94 11 -10 35 -25 54 -35 38 -19 101
-15 174 10 35 12 42 12 62 -3 22 -16 45 -81 45 -126 0 -40 31 -57 116 -62 44
-3 94 -10 113 -16 20 -6 63 -8 105 -4 l71 6 50 -50 c44 -45 54 -50 93 -50 53
0 95 36 111 97 l11 40 77 -1 c69 -1 89 -6 173 -45 52 -24 105 -45 117 -48 28
-7 73 37 73 72 0 23 3 25 50 25 42 0 55 5 75 26 21 23 27 24 63 15 21 -6 58
-24 80 -41 39 -28 50 -31 174 -39 129 -10 134 -11 155 -38 32 -39 46 -88 38
-131 -16 -91 -13 -106 26 -125 20 -10 65 -22 100 -28 89 -14 171 -41 177 -59
3 -8 18 -27 34 -43 23 -21 39 -27 76 -27 42 0 50 -4 82 -41 34 -38 38 -40 108
-46 65 -5 76 -3 102 16 16 11 35 21 43 21 7 0 44 16 83 35 38 19 78 35 89 35
25 0 55 -47 55 -85 0 -49 27 -84 92 -115 34 -17 71 -30 83 -30 12 0 53 16 91
36 72 38 72 38 183 14 30 -6 66 -8 80 -4 78 21 203 -10 292 -72 68 -47 140
-61 219 -40 36 8 79 28 99 44 69 56 105 66 116 32 10 -33 72 -61 173 -81 53
-10 105 -19 114 -19 9 0 36 18 59 41 40 39 45 41 83 33 88 -17 158 -5 263 44
38 18 81 12 146 -18 55 -26 93 -21 107 14 4 13 15 26 22 29 17 6 38 72 38 119
0 19 5 60 11 91 21 101 -6 301 -50 377 -5 8 -15 28 -22 43 -7 16 -33 40 -56
54 -55 32 -59 51 -44 179 9 68 9 109 3 120 -7 12 -6 26 1 41 7 16 7 30 -1 48
-14 31 -16 87 -3 101 10 11 47 133 57 187 3 20 3 62 -1 92 -6 51 -9 57 -44 74
-26 14 -67 21 -141 25 -58 3 -126 8 -151 12 -44 6 -47 5 -70 -27 -13 -19 -31
-47 -39 -64 -14 -28 -18 -30 -65 -27 -90 4 -109 3 -175 -7 -120 -20 -195 -37
-224 -51 -28 -14 -30 -13 -63 25 -43 50 -81 75 -115 75 -14 0 -55 13 -90 30
-34 16 -72 30 -84 30 -11 0 -30 14 -43 30 -22 30 -24 31 -104 29 -45 -1 -90
-5 -99 -10 -18 -10 -68 -105 -68 -130 0 -39 -45 -48 -125 -28 -39 10 -46 16
-55 48 -5 20 -10 43 -10 51 0 22 -59 90 -77 90 -9 0 -40 -25 -70 -56 l-53 -57
6 -53 c4 -30 4 -54 0 -54 -9 0 -56 54 -81 94 -67 107 -87 131 -117 141 -23 7
-35 19 -41 40 -5 17 -19 50 -30 75 -17 34 -28 46 -48 48 -26 3 -43 -11 -74
-62 -9 -14 -18 -15 -70 -5 -51 9 -68 8 -105 -6 -95 -35 -120 -40 -140 -27 -11
7 -37 12 -59 12 -37 0 -39 2 -44 38 -4 21 -2 38 3 40 34 12 61 133 44 195 -7
24 -80 57 -126 57 -32 0 -45 -7 -81 -45 -24 -25 -51 -45 -60 -45 -9 0 -28 -5
-42 -12 -19 -8 -34 -8 -62 0 -21 6 -48 14 -60 17 -13 4 -23 12 -23 19 0 6 -20
28 -44 49 -42 35 -49 37 -114 37 -68 0 -70 1 -82 30 -17 40 -65 80 -98 80 -14
0 -41 6 -60 12 l-34 13 6 57 c6 49 4 60 -14 78 -11 11 -24 20 -30 20 -5 0 -10
10 -10 23 0 12 -7 31 -15 41 -11 14 -12 23 -4 32 6 7 9 28 7 46 -3 29 -7 33
-35 36 -20 2 -37 11 -43 22 -7 12 -26 21 -58 26 -26 3 -53 11 -60 17 -32 26
-204 -22 -216 -60 -3 -11 -24 -27 -46 -37 -22 -9 -48 -27 -57 -40 -15 -18 -22
-20 -38 -11 -31 15 -105 91 -105 106 0 8 -7 23 -15 33 -8 11 -15 28 -15 38 0
11 -13 27 -30 36 -16 9 -30 22 -30 28 0 14 -43 54 -58 54 -7 0 -12 9 -12 20 0
37 -133 100 -181 85 -12 -4 -29 1 -45 14 -15 12 -39 21 -54 21 -15 0 -34 7
-41 16 -10 12 -25 15 -57 11 -62 -7 -121 29 -122 74 0 20 -42 59 -64 59 -24 0
-74 39 -98 78 -18 29 -25 33 -52 29 -21 -3 -42 3 -66 18 -19 12 -46 26 -60 30
-14 4 -29 11 -35 15 -5 4 -33 13 -62 20 -49 13 -52 15 -46 42 5 24 -1 34 -36
66 -35 32 -41 43 -41 78 0 75 -47 110 -115 84 -18 -7 -40 -6 -68 1 -23 6 -69
16 -102 23 -33 7 -77 19 -98 29 -52 23 -103 31 -111 18z m97 -60 c23 -11 62
-22 87 -25 46 -7 99 -22 135 -38 14 -6 35 -4 65 7 42 15 46 15 58 -2 9 -12 11
-32 8 -56 -6 -33 -3 -41 26 -67 18 -17 36 -30 41 -30 4 0 6 -24 5 -52 -3 -53
-3 -53 27 -53 36 -1 96 -14 110 -25 6 -4 21 -11 35 -15 14 -4 42 -19 62 -31
21 -13 49 -24 63 -24 18 0 42 -17 80 -56 38 -40 59 -55 71 -50 23 9 43 -11 37
-35 -4 -15 4 -29 28 -49 19 -16 39 -29 45 -30 7 0 14 -7 18 -15 7 -18 36 -19
71 -3 23 10 28 10 36 -5 6 -11 22 -17 43 -17 18 0 45 -9 59 -20 17 -14 40 -20
74 -20 64 0 116 -28 123 -66 4 -23 12 -30 35 -34 20 -3 34 -14 43 -33 8 -16
25 -33 38 -39 13 -6 24 -18 24 -27 0 -9 6 -25 14 -36 7 -11 16 -32 20 -47 3
-15 16 -33 28 -39 13 -7 31 -22 41 -35 21 -27 72 -54 101 -54 12 0 33 15 48
34 16 20 41 37 58 41 20 4 35 16 40 31 15 38 124 75 164 56 11 -6 38 -13 58
-17 23 -3 42 -14 48 -25 7 -13 21 -20 40 -20 30 0 40 -13 20 -25 -15 -9 -12
-48 5 -71 8 -10 15 -32 15 -47 0 -17 7 -30 18 -34 36 -13 39 -21 31 -80 -5
-34 -4 -62 1 -67 14 -14 82 -36 113 -36 31 0 62 -28 89 -78 17 -31 18 -32 90
-32 66 -1 76 -3 104 -29 17 -15 33 -35 37 -44 13 -33 113 -61 192 -52 58 6 65
10 110 56 51 53 71 58 119 31 24 -14 29 -25 30 -57 2 -45 -7 -69 -37 -102 -17
-19 -19 -30 -13 -75 9 -67 19 -78 72 -78 23 0 46 -4 49 -10 11 -17 98 -11 145
11 50 23 108 26 152 8 39 -16 74 3 94 51 l15 35 19 -35 c11 -19 19 -44 20 -55
0 -29 28 -65 60 -79 25 -10 100 -96 100 -114 0 -5 15 -26 33 -48 19 -21 36
-46 40 -56 6 -17 78 -34 97 -23 8 5 9 28 4 72 -6 63 -6 66 23 92 17 15 33 34
36 42 9 23 44 -28 52 -75 3 -23 12 -51 20 -62 28 -44 188 -61 225 -24 11 11
20 27 20 36 0 9 10 38 22 64 20 45 25 48 66 54 82 11 102 8 111 -18 10 -24 29
-36 59 -36 9 0 46 -14 80 -30 35 -17 76 -30 91 -30 32 0 62 -20 109 -72 37
-41 74 -49 115 -26 20 11 268 60 292 58 6 -1 42 -4 82 -6 l71 -6 39 66 c27 47
42 64 53 60 8 -3 67 -8 130 -11 139 -6 166 -17 175 -71 8 -48 -29 -213 -57
-248 -7 -10 -6 -69 3 -249 1 -11 -2 -61 -6 -111 -4 -50 -5 -103 -1 -117 4 -16
29 -43 61 -68 31 -24 55 -49 55 -60 0 -10 5 -21 10 -24 36 -22 70 -251 51
-335 -6 -25 -11 -64 -11 -87 0 -51 -12 -84 -46 -127 l-27 -33 -41 20 c-55 28
-167 35 -185 13 -7 -9 -22 -16 -33 -16 -11 0 -41 -9 -68 -21 -40 -17 -54 -19
-86 -10 -74 21 -107 14 -155 -28 l-44 -39 -93 18 c-101 19 -138 38 -152 76
-18 46 -116 27 -186 -37 -11 -11 -45 -26 -75 -33 -67 -18 -124 -6 -189 39 -78
54 -216 93 -286 81 -53 -9 -113 -7 -135 4 -38 21 -105 11 -175 -25 l-67 -35
-58 26 c-59 28 -79 53 -79 102 0 15 -11 44 -25 65 -23 33 -30 37 -68 37 -28 0
-65 -12 -111 -35 -39 -19 -76 -35 -83 -35 -8 0 -27 -10 -43 -21 -24 -19 -36
-21 -81 -15 -46 6 -58 13 -95 53 -40 43 -44 45 -82 38 -37 -6 -41 -4 -74 35
-39 48 -124 87 -188 88 -23 1 -64 8 -91 17 -40 14 -49 20 -43 34 4 9 10 41 12
72 4 63 -10 107 -51 155 -30 36 -54 41 -207 50 -82 4 -98 8 -120 28 -29 28
-107 56 -154 56 -25 0 -38 -7 -50 -25 -14 -22 -24 -25 -70 -25 -56 0 -79 -14
-76 -47 6 -55 1 -55 -140 6 -86 37 -103 40 -182 41 -96 0 -107 -7 -122 -73 -8
-35 -40 -67 -66 -67 -12 0 -44 23 -73 51 l-52 51 -76 -6 c-43 -4 -88 -2 -103
4 -15 5 -63 12 -108 15 -45 4 -85 8 -90 11 -4 3 -8 16 -8 29 0 56 -24 116 -58
142 -36 27 -37 27 -150 -2 -57 -14 -65 -14 -95 1 -17 9 -41 24 -52 34 -11 10
-36 26 -56 37 -47 23 -183 94 -215 111 -36 19 -109 6 -133 -24 -10 -13 -23
-24 -29 -24 -17 0 -128 58 -141 74 -7 8 -38 24 -69 36 -103 37 -178 82 -190
112 -11 29 -31 35 -109 29 -28 -2 -33 1 -33 21 0 13 -18 42 -40 67 -22 24 -40
47 -40 52 0 17 -69 79 -88 79 -27 0 -104 30 -117 46 -5 6 -22 14 -37 18 -14 3
-39 17 -55 29 -15 13 -40 27 -54 30 -14 4 -42 18 -62 32 -21 13 -48 27 -61 31
-13 3 -28 16 -35 30 -7 16 -19 24 -35 24 -14 0 -34 9 -45 21 -13 14 -28 19
-47 17 -28 -3 -29 -5 -28 -56 l2 -52 -40 36 c-30 27 -46 34 -63 30 -19 -5 -35
5 -82 52 -59 58 -169 132 -196 132 -9 0 -20 15 -27 34 -12 38 3 89 33 115 11
8 17 28 17 53 0 59 26 96 69 100 35 3 36 4 35 45 0 31 4 43 17 46 11 3 19 19
24 45 5 33 1 52 -23 104 l-29 63 43 52 c24 28 44 54 44 58 0 4 11 20 25 37 31
36 31 61 3 115 -22 41 -22 41 -3 77 14 26 26 36 44 36 56 0 121 69 121 129 0
22 27 41 56 41 20 0 84 57 84 75 0 6 20 31 45 55 25 24 45 50 45 58 0 23 -133
162 -173 179 -24 11 -50 35 -71 68 -19 27 -33 51 -31 53 7 7 124 -64 161 -98
31 -29 51 -38 92 -44 28 -4 54 -11 57 -16 3 -6 15 -10 26 -10 32 0 77 -28 85
-52 4 -13 15 -34 25 -47 10 -12 21 -39 25 -60 11 -64 28 -81 82 -81 39 0 53 5
72 25 23 25 30 66 16 98 -7 14 -2 18 22 23 17 3 41 17 54 31 21 22 23 34 24
126 0 56 1 106 2 110 1 5 17 -1 36 -12 45 -28 74 -27 86 3 8 23 26 31 73 35 9
0 36 -8 60 -18z"/>
</g>
</svg>
